<svg preserveAspectRatio="none" overflow="visible" style="display: block;" width="12" height="12" viewBox="0 0 12 12" fill="none" xmlns="http://www.w3.org/2000/svg">
<g id="Group">
<g id="Vector">
</g>
<path id="Vector_2" d="M7.53 2.6415L10.3585 5.47C10.499 5.61063 10.5778 5.80125 10.5778 6C10.5778 6.19875 10.499 6.38937 10.3585 6.53L7.5305 9.359C7.3898 9.4997 7.19898 9.57874 7 9.57874C6.80102 9.57874 6.6102 9.4997 6.4695 9.359C6.3288 9.2183 6.24976 9.02748 6.24976 8.8285C6.24976 8.62952 6.3288 8.4387 6.4695 8.298L8.0175 6.75H2.25C2.05109 6.75 1.86032 6.67098 1.71967 6.53033C1.57902 6.38968 1.5 6.19891 1.5 6C1.5 5.80109 1.57902 5.61032 1.71967 5.46967C1.86032 5.32902 2.05109 5.25 2.25 5.25H8.0175L6.47 3.702C6.32937 3.5613 6.25039 3.3705 6.25044 3.17157C6.25046 3.07307 6.26988 2.97554 6.3076 2.88455C6.34531 2.79356 6.40058 2.71088 6.47025 2.64125C6.53992 2.57162 6.62262 2.51639 6.71363 2.47871C6.80464 2.44104 6.90218 2.42166 7.00068 2.42169C7.19961 2.42173 7.39037 2.5008 7.531 2.6415H7.53Z" fill="#8199A3"/>
</g>
</svg>
