<svg width="390" height="316" viewBox="0 0 390 316" fill="none" xmlns="http://www.w3.org/2000/svg">
<defs>
  <radialGradient id="centerGlow" cx="75%" cy="45%" r="65%">
    <stop offset="0%" stop-color="#FFFFFF" stop-opacity="0.3"/>
    <stop offset="40%" stop-color="#FFFFFF" stop-opacity="0.1"/>
    <stop offset="100%" stop-color="#FFFFFF" stop-opacity="0"/>
  </radialGradient>
</defs>
<!-- Soft Radiant Sunburst Rays centered behind character -->
<g opacity="0.85">
  <path d="M721.365 194.03C721.365 153.385 714.968 112.993 702.407 74.3369L334.03 194.03H721.365Z" fill="white" fill-opacity="0.08"/>
  <path d="M647.391 -33.6397C623.5 -66.5224 594.583 -95.4398 561.7 -119.33L334.03 194.03L647.391 -33.6397Z" fill="white" fill-opacity="0.08"/>
  <path d="M453.723 -174.347C415.068 -186.907 374.676 -193.305 334.03 -193.305L334.03 194.03L453.723 -174.347Z" fill="white" fill-opacity="0.08"/>
  <path d="M214.338 -174.347C175.682 -161.787 139.244 -143.221 106.361 -119.33L334.03 194.03L214.338 -174.347Z" fill="white" fill-opacity="0.08"/>
  <path d="M20.6696 -33.6397C-3.22102 -0.757038 -21.7872 35.6811 -34.3472 74.3369L334.03 194.03L20.6696 -33.6397Z" fill="white" fill-opacity="0.08"/>
  <path d="M-53.3043 194.03C-53.3043 234.676 -46.9069 275.067 -34.3468 313.723L334.03 194.03L-53.3043 194.03Z" fill="white" fill-opacity="0.08"/>
  <path d="M20.6698 421.7C44.5605 454.583 73.4779 483.5 106.361 507.391L334.03 194.03L20.6698 421.7Z" fill="white" fill-opacity="0.08"/>
  <path d="M214.337 563.646C252.993 576.206 293.385 582.604 334.03 582.604L334.03 195.269L214.337 563.646Z" fill="white" fill-opacity="0.08"/>
  <path d="M453.723 563.647C492.379 551.087 528.817 532.52 561.7 508.63L334.03 195.269L453.723 563.647Z" fill="white" fill-opacity="0.08"/>
  <path d="M647.391 422.939C671.282 390.056 689.848 353.618 702.408 314.962L334.031 195.269L647.391 422.939Z" fill="white" fill-opacity="0.08"/>
</g>
<!-- Subtle Radial Lighting to soften lines and create depth -->
<rect width="390" height="316" fill="url(#centerGlow)" style="mix-blend-mode: overlay;"/>
</svg>
