<svg width="24" height="24" viewBox="0 0 24 24" fill="none" xmlns="http://www.w3.org/2000/svg">
<g clip-path="url(#clip0_31_335)">
<path d="M3.28298 10.94C3.00208 11.2213 2.8443 11.6025 2.8443 12C2.8443 12.3975 3.00208 12.7787 3.28298 13.06L8.93898 18.718C9.22037 18.9994 9.60203 19.1575 9.99998 19.1575C10.3979 19.1575 10.7796 18.9994 11.061 18.718C11.3424 18.4366 11.5005 18.055 11.5005 17.657C11.5005 17.259 11.3424 16.8774 11.061 16.596L7.96498 13.5H19.5C19.8978 13.5 20.2793 13.342 20.5606 13.0607C20.8419 12.7794 21 12.3978 21 12C21 11.6022 20.8419 11.2206 20.5606 10.9393C20.2793 10.658 19.8978 10.5 19.5 10.5H7.96498L11.061 7.404C11.2002 7.26467 11.3107 7.09927 11.3861 6.91725C11.4614 6.73522 11.5002 6.54015 11.5001 6.34315C11.5001 6.14615 11.4612 5.95108 11.3858 5.7691C11.3103 5.58711 11.1998 5.42177 11.0605 5.2825C10.9211 5.14323 10.7557 5.03277 10.5737 4.95743C10.3917 4.88208 10.1966 4.84333 9.99963 4.84337C9.80263 4.84342 9.60756 4.88227 9.42558 4.9577C9.24359 5.03313 9.07825 5.14367 8.93898 5.283L3.28298 10.94Z" fill="white"/>
</g>
<defs>
<clipPath id="clip0_31_335">
<rect width="24" height="24" fill="white"/>
</clipPath>
</defs>
</svg>
