<svg width="13" height="13" viewBox="0 0 13 13" fill="none" xmlns="http://www.w3.org/2000/svg">
<g clip-path="url(#clip0_53_472)">
<path d="M6.49998 1.08334C9.4916 1.08334 11.9166 3.50839 11.9166 6.50001C11.9166 9.49163 9.4916 11.9167 6.49998 11.9167C3.50835 11.9167 1.08331 9.49163 1.08331 6.50001C1.08331 3.50839 3.50835 1.08334 6.49998 1.08334ZM8.41477 4.53972L5.73352 7.22097L4.58519 6.07209C4.48362 5.97045 4.34584 5.91333 4.20215 5.91327C4.05846 5.91322 3.92064 5.97026 3.819 6.07182C3.71736 6.17339 3.66023 6.31117 3.66018 6.45486C3.66013 6.59855 3.71716 6.73637 3.81873 6.83801L5.31265 8.33193C5.36798 8.38728 5.43367 8.4312 5.50598 8.46116C5.57829 8.49112 5.65579 8.50654 5.73406 8.50654C5.81233 8.50654 5.88983 8.49112 5.96214 8.46116C6.03445 8.4312 6.10015 8.38728 6.15548 8.33193L9.18123 5.30618C9.28287 5.20454 9.33997 5.06669 9.33997 4.92295C9.33997 4.77921 9.28287 4.64136 9.18123 4.53972C9.07959 4.43808 8.94174 4.38098 8.798 4.38098C8.65426 4.38098 8.51641 4.43808 8.41477 4.53972Z" fill="white"/>
</g>
<defs>
<clipPath id="clip0_53_472">
<rect width="13" height="13" fill="white"/>
</clipPath>
</defs>
</svg>
